# xmcd
#
# Track frame offsets: 
#        182
#        11385
#        21682
#        38180
#        51847
#        62202
#        73560
#        85152
#        99807
#        111942
#        125225
#        136115
#        149412
#        162810
#        175482
#        191330
#        203312
#        216655
#        227647
#        238005
#        248302
#        260127
#        273252
#        285645
#        297825
#
# Disc length: 4183 seconds
#
# Revision: 0
# Processed by: cddbd v1.5.1PL0 Copyright (c) Steve Scherf et al.
# Submitted via: ExactAudioCopy v0.95a5
#
DISCID=71105519
DTITLE=Various Artist - Country Superstars - 100 Greatest Hits [CD3]
DYEAR=1994
DGENRE=Country
TTITLE0=Conway Twitty It's Only Make Believe
TTITLE1=Loretta Lynn - Out Of My Head And Back In My Bed
TTITLE2=Slim Whitman - Precious Memories Follow Me
TTITLE3=Jimmy Dean - This Old House
TTITLE4=Mickey Gilley - I Miss You So
TTITLE5=Kendalls - Heaven's Just A Sin Away
TTITLE6=Sammi Smith - Help Me Make It Through The Night
TTITLE7=BJ Thomas - I'm So Lonesome I Could Cry
TTITLE8=Brenda Lee - How Much Love
TTITLE9=Willie Nelson - You'll Always Have Someone
TTITLE10=Roger Miller - King Of The Road
TTITLE11=Conway Twitty - After All The Good Is Gone
TTITLE12=Tennessee Ernie Ford - This Old Heart Is Gonna Rise Again
TTITLE13=Johnny Cash - Folsom Prison Blues
TTITLE14=Brenda Lee - Johnny One Time
TTITLE15=George Jones - White LIghtning
TTITLE16=David Houston - Almost Persuaded
TTITLE17=Dolly Parton - It Wasn't God Who Made Honky Tonk Angels
TTITLE18=George Jones - Walk Through This World With Me
TTITLE19=Loretta Lynn - Somebody Somewhere (Don't Know What He's Missi
TTITLE19=n' Tonight)
TTITLE20=Conway Twitty - Lying Here With Linda On My Mind
TTITLE21=Mickey Gilley - That Heart Belongs To Me
TTITLE22=Alabama - Loving You Is Killing Me
TTITLE23=Oak Ridge Boys - When I Lay My Burdens Down
TTITLE24=Brenda Lee - Coming On Strong
EXTD=
EXTT0=
EXTT1=
EXTT2=
EXTT3=
EXTT4=
EXTT5=
EXTT6=
EXTT7=
EXTT8=
EXTT9=
EXTT10=
EXTT11=
EXTT12=
EXTT13=
EXTT14=
EXTT15=
EXTT16=
EXTT17=
EXTT18=
EXTT19=
EXTT20=
EXTT21=
EXTT22=
EXTT23=
EXTT24=
PLAYORDER=
